<?xml version="1.0" encoding="utf-8" standalone="no"?>
<!DOCTYPE svg PUBLIC "-//W3C//DTD SVG 1.1//EN"
  "http://www.w3.org/Graphics/SVG/1.1/DTD/svg11.dtd">
<svg xmlns:xlink="http://www.w3.org/1999/xlink" width="610.92pt" height="288pt" viewBox="0 0 610.92 288" xmlns="http://www.w3.org/2000/svg" version="1.1">
 <metadata>
  <rdf:RDF xmlns:dc="http://purl.org/dc/elements/1.1/" xmlns:cc="http://creativecommons.org/ns#" xmlns:rdf="http://www.w3.org/1999/02/22-rdf-syntax-ns#">
   <cc:Work>
    <dc:type rdf:resource="http://purl.org/dc/dcmitype/StillImage"/>
    <dc:date>2025-07-23T14:58:38.709927</dc:date>
    <dc:format>image/svg+xml</dc:format>
    <dc:creator>
     <cc:Agent>
      <dc:title>Matplotlib v3.10.3, https://matplotlib.org/</dc:title>
     </cc:Agent>
    </dc:creator>
   </cc:Work>
  </rdf:RDF>
 </metadata>
 <defs>
  <style type="text/css">*{stroke-linejoin: round; stroke-linecap: butt}</style>
 </defs>
 <g id="figure_1">
  <g id="patch_1">
   <path d="M 0 288 
L 610.92 288 
L 610.92 0 
L 0 0 
z
" style="fill: #ffffff"/>
  </g>
  <g id="axes_1">
   <g id="patch_2">
    <path d="M 76.365 256.32 
L 549.828 256.32 
L 549.828 34.56 
L 76.365 34.56 
z
" style="fill: #ffffff"/>
   </g>
   <g id="matplotlib.axis_1">
    <g id="xtick_1">
     <g id="line2d_1">
      <defs>
       <path id="md3cc84ffc5" d="M 0 0 
L 0 -8 
" style="stroke: #4c4c4c; stroke-width: 0.8"/>
      </defs>
      <g>
       <use xlink:href="#md3cc84ffc5" x="127.425576" y="256.32" style="fill: #4c4c4c; stroke: #4c4c4c; stroke-width: 0.8"/>
      </g>
     </g>
     <g id="text_1">
      <!-- $\mathdefault{−0.4}$ -->
      <g style="fill: #4c4c4c" transform="translate(112.845576 268.938125) scale(0.12 -0.12)">
       <defs>
        <path id="DejaVuSans-2212" d="M 678 2272 
L 4684 2272 
L 4684 1741 
L 678 1741 
L 678 2272 
z
" transform="scale(0.015625)"/>
        <path id="DejaVuSans-30" d="M 2034 4250 
Q 1547 4250 1301 3770 
Q 1056 3291 1056 2328 
Q 1056 1369 1301 889 
Q 1547 409 2034 409 
Q 2525 409 2770 889 
Q 3016 1369 3016 2328 
Q 3016 3291 2770 3770 
Q 2525 4250 2034 4250 
z
M 2034 4750 
Q 2819 4750 3233 4129 
Q 3647 3509 3647 2328 
Q 3647 1150 3233 529 
Q 2819 -91 2034 -91 
Q 1250 -91 836 529 
Q 422 1150 422 2328 
Q 422 3509 836 4129 
Q 1250 4750 2034 4750 
z
" transform="scale(0.015625)"/>
        <path id="DejaVuSans-2e" d="M 684 794 
L 1344 794 
L 1344 0 
L 684 0 
L 684 794 
z
" transform="scale(0.015625)"/>
        <path id="DejaVuSans-34" d="M 2419 4116 
L 825 1625 
L 2419 1625 
L 2419 4116 
z
M 2253 4666 
L 3047 4666 
L 3047 1625 
L 3713 1625 
L 3713 1100 
L 3047 1100 
L 3047 0 
L 2419 0 
L 2419 1100 
L 313 1100 
L 313 1709 
L 2253 4666 
z
" transform="scale(0.015625)"/>
       </defs>
       <use xlink:href="#DejaVuSans-2212" transform="translate(0 0.78125)"/>
       <use xlink:href="#DejaVuSans-30" transform="translate(83.789062 0.78125)"/>
       <use xlink:href="#DejaVuSans-2e" transform="translate(147.412109 0.78125)"/>
       <use xlink:href="#DejaVuSans-34" transform="translate(179.199219 0.78125)"/>
      </g>
     </g>
    </g>
    <g id="xtick_2">
     <g id="line2d_2">
      <g>
       <use xlink:href="#md3cc84ffc5" x="220.26096" y="256.32" style="fill: #4c4c4c; stroke: #4c4c4c; stroke-width: 0.8"/>
      </g>
     </g>
     <g id="text_2">
      <!-- $\mathdefault{−0.2}$ -->
      <g style="fill: #4c4c4c" transform="translate(205.98096 268.938125) scale(0.12 -0.12)">
       <defs>
        <path id="DejaVuSans-32" d="M 1228 531 
L 3431 531 
L 3431 0 
L 469 0 
L 469 531 
Q 828 903 1448 1529 
Q 2069 2156 2228 2338 
Q 2531 2678 2651 2914 
Q 2772 3150 2772 3378 
Q 2772 3750 2511 3984 
Q 2250 4219 1831 4219 
Q 1534 4219 1204 4116 
Q 875 4013 500 3803 
L 500 4441 
Q 881 4594 1212 4672 
Q 1544 4750 1819 4750 
Q 2544 4750 2975 4387 
Q 3406 4025 3406 3419 
Q 3406 3131 3298 2873 
Q 3191 2616 2906 2266 
Q 2828 2175 2409 1742 
Q 1991 1309 1228 531 
z
" transform="scale(0.015625)"/>
       </defs>
       <use xlink:href="#DejaVuSans-2212" transform="translate(0 0.78125)"/>
       <use xlink:href="#DejaVuSans-30" transform="translate(83.789062 0.78125)"/>
       <use xlink:href="#DejaVuSans-2e" transform="translate(147.412109 0.78125)"/>
       <use xlink:href="#DejaVuSans-32" transform="translate(173.699219 0.78125)"/>
      </g>
     </g>
    </g>
    <g id="xtick_3">
     <g id="line2d_3">
      <g>
       <use xlink:href="#md3cc84ffc5" x="313.096343" y="256.32" style="fill: #4c4c4c; stroke: #4c4c4c; stroke-width: 0.8"/>
      </g>
     </g>
     <g id="text_3">
      <!-- $\mathdefault{0.0}$ -->
      <g style="fill: #4c4c4c" transform="translate(303.496343 268.938125) scale(0.12 -0.12)">
       <use xlink:href="#DejaVuSans-30" transform="translate(0 0.78125)"/>
       <use xlink:href="#DejaVuSans-2e" transform="translate(63.623047 0.78125)"/>
       <use xlink:href="#DejaVuSans-30" transform="translate(95.410156 0.78125)"/>
      </g>
     </g>
    </g>
    <g id="xtick_4">
     <g id="line2d_4">
      <g>
       <use xlink:href="#md3cc84ffc5" x="405.931727" y="256.32" style="fill: #4c4c4c; stroke: #4c4c4c; stroke-width: 0.8"/>
      </g>
     </g>
     <g id="text_4">
      <!-- $\mathdefault{0.2}$ -->
      <g style="fill: #4c4c4c" transform="translate(396.691727 268.938125) scale(0.12 -0.12)">
       <use xlink:href="#DejaVuSans-30" transform="translate(0 0.78125)"/>
       <use xlink:href="#DejaVuSans-2e" transform="translate(63.623047 0.78125)"/>
       <use xlink:href="#DejaVuSans-32" transform="translate(89.910156 0.78125)"/>
      </g>
     </g>
    </g>
    <g id="xtick_5">
     <g id="line2d_5">
      <g>
       <use xlink:href="#md3cc84ffc5" x="498.767111" y="256.32" style="fill: #4c4c4c; stroke: #4c4c4c; stroke-width: 0.8"/>
      </g>
     </g>
     <g id="text_5">
      <!-- $\mathdefault{0.4}$ -->
      <g style="fill: #4c4c4c" transform="translate(489.167111 268.938125) scale(0.12 -0.12)">
       <use xlink:href="#DejaVuSans-30" transform="translate(0 0.78125)"/>
       <use xlink:href="#DejaVuSans-2e" transform="translate(63.623047 0.78125)"/>
       <use xlink:href="#DejaVuSans-34" transform="translate(95.410156 0.78125)"/>
      </g>
     </g>
    </g>
    <g id="xtick_6">
     <g id="line2d_6">
      <defs>
       <path id="m340aa60c11" d="M 0 0 
L 0 -4 
" style="stroke: #4c4c4c; stroke-width: 0.6"/>
      </defs>
      <g>
       <use xlink:href="#m340aa60c11" x="81.007884" y="256.32" style="fill: #4c4c4c; stroke: #4c4c4c; stroke-width: 0.6"/>
      </g>
     </g>
    </g>
    <g id="xtick_7">
     <g id="line2d_7">
      <g>
       <use xlink:href="#m340aa60c11" x="104.21673" y="256.32" style="fill: #4c4c4c; stroke: #4c4c4c; stroke-width: 0.6"/>
      </g>
     </g>
    </g>
    <g id="xtick_8">
     <g id="line2d_8">
      <g>
       <use xlink:href="#m340aa60c11" x="150.634422" y="256.32" style="fill: #4c4c4c; stroke: #4c4c4c; stroke-width: 0.6"/>
      </g>
     </g>
    </g>
    <g id="xtick_9">
     <g id="line2d_9">
      <g>
       <use xlink:href="#m340aa60c11" x="173.843268" y="256.32" style="fill: #4c4c4c; stroke: #4c4c4c; stroke-width: 0.6"/>
      </g>
     </g>
    </g>
    <g id="xtick_10">
     <g id="line2d_10">
      <g>
       <use xlink:href="#m340aa60c11" x="197.052114" y="256.32" style="fill: #4c4c4c; stroke: #4c4c4c; stroke-width: 0.6"/>
      </g>
     </g>
    </g>
    <g id="xtick_11">
     <g id="line2d_11">
      <g>
       <use xlink:href="#m340aa60c11" x="243.469805" y="256.32" style="fill: #4c4c4c; stroke: #4c4c4c; stroke-width: 0.6"/>
      </g>
     </g>
    </g>
    <g id="xtick_12">
     <g id="line2d_12">
      <g>
       <use xlink:href="#m340aa60c11" x="266.678651" y="256.32" style="fill: #4c4c4c; stroke: #4c4c4c; stroke-width: 0.6"/>
      </g>
     </g>
    </g>
    <g id="xtick_13">
     <g id="line2d_13">
      <g>
       <use xlink:href="#m340aa60c11" x="289.887497" y="256.32" style="fill: #4c4c4c; stroke: #4c4c4c; stroke-width: 0.6"/>
      </g>
     </g>
    </g>
    <g id="xtick_14">
     <g id="line2d_14">
      <g>
       <use xlink:href="#m340aa60c11" x="336.305189" y="256.32" style="fill: #4c4c4c; stroke: #4c4c4c; stroke-width: 0.6"/>
      </g>
     </g>
    </g>
    <g id="xtick_15">
     <g id="line2d_15">
      <g>
       <use xlink:href="#m340aa60c11" x="359.514035" y="256.32" style="fill: #4c4c4c; stroke: #4c4c4c; stroke-width: 0.6"/>
      </g>
     </g>
    </g>
    <g id="xtick_16">
     <g id="line2d_16">
      <g>
       <use xlink:href="#m340aa60c11" x="382.722881" y="256.32" style="fill: #4c4c4c; stroke: #4c4c4c; stroke-width: 0.6"/>
      </g>
     </g>
    </g>
    <g id="xtick_17">
     <g id="line2d_17">
      <g>
       <use xlink:href="#m340aa60c11" x="429.140573" y="256.32" style="fill: #4c4c4c; stroke: #4c4c4c; stroke-width: 0.6"/>
      </g>
     </g>
    </g>
    <g id="xtick_18">
     <g id="line2d_18">
      <g>
       <use xlink:href="#m340aa60c11" x="452.349419" y="256.32" style="fill: #4c4c4c; stroke: #4c4c4c; stroke-width: 0.6"/>
      </g>
     </g>
    </g>
    <g id="xtick_19">
     <g id="line2d_19">
      <g>
       <use xlink:href="#m340aa60c11" x="475.558265" y="256.32" style="fill: #4c4c4c; stroke: #4c4c4c; stroke-width: 0.6"/>
      </g>
     </g>
    </g>
    <g id="xtick_20">
     <g id="line2d_20">
      <g>
       <use xlink:href="#m340aa60c11" x="521.975956" y="256.32" style="fill: #4c4c4c; stroke: #4c4c4c; stroke-width: 0.6"/>
      </g>
     </g>
    </g>
    <g id="xtick_21">
     <g id="line2d_21">
      <g>
       <use xlink:href="#m340aa60c11" x="545.184802" y="256.32" style="fill: #4c4c4c; stroke: #4c4c4c; stroke-width: 0.6"/>
      </g>
     </g>
    </g>
    <g id="text_6">
     <!-- Phase [JD] -->
     <g style="fill: #4c4c4c" transform="translate(274.479703 286.831406) scale(0.15 -0.15)">
      <defs>
       <path id="DejaVuSans-50" d="M 1259 4147 
L 1259 2394 
L 2053 2394 
Q 2494 2394 2734 2622 
Q 2975 2850 2975 3272 
Q 2975 3691 2734 3919 
Q 2494 4147 2053 4147 
L 1259 4147 
z
M 628 4666 
L 2053 4666 
Q 2838 4666 3239 4311 
Q 3641 3956 3641 3272 
Q 3641 2581 3239 2228 
Q 2838 1875 2053 1875 
L 1259 1875 
L 1259 0 
L 628 0 
L 628 4666 
z
" transform="scale(0.015625)"/>
       <path id="DejaVuSans-68" d="M 3513 2113 
L 3513 0 
L 2938 0 
L 2938 2094 
Q 2938 2591 2744 2837 
Q 2550 3084 2163 3084 
Q 1697 3084 1428 2787 
Q 1159 2491 1159 1978 
L 1159 0 
L 581 0 
L 581 4863 
L 1159 4863 
L 1159 2956 
Q 1366 3272 1645 3428 
Q 1925 3584 2291 3584 
Q 2894 3584 3203 3211 
Q 3513 2838 3513 2113 
z
" transform="scale(0.015625)"/>
       <path id="DejaVuSans-61" d="M 2194 1759 
Q 1497 1759 1228 1600 
Q 959 1441 959 1056 
Q 959 750 1161 570 
Q 1363 391 1709 391 
Q 2188 391 2477 730 
Q 2766 1069 2766 1631 
L 2766 1759 
L 2194 1759 
z
M 3341 1997 
L 3341 0 
L 2766 0 
L 2766 531 
Q 2569 213 2275 61 
Q 1981 -91 1556 -91 
Q 1019 -91 701 211 
Q 384 513 384 1019 
Q 384 1609 779 1909 
Q 1175 2209 1959 2209 
L 2766 2209 
L 2766 2266 
Q 2766 2663 2505 2880 
Q 2244 3097 1772 3097 
Q 1472 3097 1187 3025 
Q 903 2953 641 2809 
L 641 3341 
Q 956 3463 1253 3523 
Q 1550 3584 1831 3584 
Q 2591 3584 2966 3190 
Q 3341 2797 3341 1997 
z
" transform="scale(0.015625)"/>
       <path id="DejaVuSans-73" d="M 2834 3397 
L 2834 2853 
Q 2591 2978 2328 3040 
Q 2066 3103 1784 3103 
Q 1356 3103 1142 2972 
Q 928 2841 928 2578 
Q 928 2378 1081 2264 
Q 1234 2150 1697 2047 
L 1894 2003 
Q 2506 1872 2764 1633 
Q 3022 1394 3022 966 
Q 3022 478 2636 193 
Q 2250 -91 1575 -91 
Q 1294 -91 989 -36 
Q 684 19 347 128 
L 347 722 
Q 666 556 975 473 
Q 1284 391 1588 391 
Q 1994 391 2212 530 
Q 2431 669 2431 922 
Q 2431 1156 2273 1281 
Q 2116 1406 1581 1522 
L 1381 1569 
Q 847 1681 609 1914 
Q 372 2147 372 2553 
Q 372 3047 722 3315 
Q 1072 3584 1716 3584 
Q 2034 3584 2315 3537 
Q 2597 3491 2834 3397 
z
" transform="scale(0.015625)"/>
       <path id="DejaVuSans-65" d="M 3597 1894 
L 3597 1613 
L 953 1613 
Q 991 1019 1311 708 
Q 1631 397 2203 397 
Q 2534 397 2845 478 
Q 3156 559 3463 722 
L 3463 178 
Q 3153 47 2828 -22 
Q 2503 -91 2169 -91 
Q 1331 -91 842 396 
Q 353 884 353 1716 
Q 353 2575 817 3079 
Q 1281 3584 2069 3584 
Q 2775 3584 3186 3129 
Q 3597 2675 3597 1894 
z
M 3022 2063 
Q 3016 2534 2758 2815 
Q 2500 3097 2075 3097 
Q 1594 3097 1305 2825 
Q 1016 2553 972 2059 
L 3022 2063 
z
" transform="scale(0.015625)"/>
       <path id="DejaVuSans-20" transform="scale(0.015625)"/>
       <path id="DejaVuSans-5b" d="M 550 4863 
L 1875 4863 
L 1875 4416 
L 1125 4416 
L 1125 -397 
L 1875 -397 
L 1875 -844 
L 550 -844 
L 550 4863 
z
" transform="scale(0.015625)"/>
       <path id="DejaVuSans-4a" d="M 628 4666 
L 1259 4666 
L 1259 325 
Q 1259 -519 939 -900 
Q 619 -1281 -91 -1281 
L -331 -1281 
L -331 -750 
L -134 -750 
Q 284 -750 456 -515 
Q 628 -281 628 325 
L 628 4666 
z
" transform="scale(0.015625)"/>
       <path id="DejaVuSans-44" d="M 1259 4147 
L 1259 519 
L 2022 519 
Q 2988 519 3436 956 
Q 3884 1394 3884 2338 
Q 3884 3275 3436 3711 
Q 2988 4147 2022 4147 
L 1259 4147 
z
M 628 4666 
L 1925 4666 
Q 3281 4666 3915 4102 
Q 4550 3538 4550 2338 
Q 4550 1131 3912 565 
Q 3275 0 1925 0 
L 628 0 
L 628 4666 
z
" transform="scale(0.015625)"/>
       <path id="DejaVuSans-5d" d="M 1947 4863 
L 1947 -844 
L 622 -844 
L 622 -397 
L 1369 -397 
L 1369 4416 
L 622 4416 
L 622 4863 
L 1947 4863 
z
" transform="scale(0.015625)"/>
      </defs>
      <use xlink:href="#DejaVuSans-50"/>
      <use xlink:href="#DejaVuSans-68" transform="translate(60.302734 0)"/>
      <use xlink:href="#DejaVuSans-61" transform="translate(123.681641 0)"/>
      <use xlink:href="#DejaVuSans-73" transform="translate(184.960938 0)"/>
      <use xlink:href="#DejaVuSans-65" transform="translate(237.060547 0)"/>
      <use xlink:href="#DejaVuSans-20" transform="translate(298.583984 0)"/>
      <use xlink:href="#DejaVuSans-5b" transform="translate(330.371094 0)"/>
      <use xlink:href="#DejaVuSans-4a" transform="translate(369.384766 0)"/>
      <use xlink:href="#DejaVuSans-44" transform="translate(398.876953 0)"/>
      <use xlink:href="#DejaVuSans-5d" transform="translate(475.878906 0)"/>
     </g>
    </g>
   </g>
   <g id="matplotlib.axis_2">
    <g id="ytick_1">
     <g id="line2d_22">
      <defs>
       <path id="m0ed4180579" d="M 0 0 
L 8 0 
" style="stroke: #4c4c4c; stroke-width: 0.8"/>
      </defs>
      <g>
       <use xlink:href="#m0ed4180579" x="76.365" y="231.633591" style="fill: #4c4c4c; stroke: #4c4c4c; stroke-width: 0.8"/>
      </g>
     </g>
     <g id="text_7">
      <!-- $\mathdefault{−3}$ -->
      <g style="fill: #4c4c4c" transform="translate(55.105 236.192653) scale(0.12 -0.12)">
       <defs>
        <path id="DejaVuSans-33" d="M 2597 2516 
Q 3050 2419 3304 2112 
Q 3559 1806 3559 1356 
Q 3559 666 3084 287 
Q 2609 -91 1734 -91 
Q 1441 -91 1130 -33 
Q 819 25 488 141 
L 488 750 
Q 750 597 1062 519 
Q 1375 441 1716 441 
Q 2309 441 2620 675 
Q 2931 909 2931 1356 
Q 2931 1769 2642 2001 
Q 2353 2234 1838 2234 
L 1294 2234 
L 1294 2753 
L 1863 2753 
Q 2328 2753 2575 2939 
Q 2822 3125 2822 3475 
Q 2822 3834 2567 4026 
Q 2313 4219 1838 4219 
Q 1578 4219 1281 4162 
Q 984 4106 628 3988 
L 628 4550 
Q 988 4650 1302 4700 
Q 1616 4750 1894 4750 
Q 2613 4750 3031 4423 
Q 3450 4097 3450 3541 
Q 3450 3153 3228 2886 
Q 3006 2619 2597 2516 
z
" transform="scale(0.015625)"/>
       </defs>
       <use xlink:href="#DejaVuSans-2212" transform="translate(0 0.78125)"/>
       <use xlink:href="#DejaVuSans-33" transform="translate(83.789062 0.78125)"/>
      </g>
     </g>
    </g>
    <g id="ytick_2">
     <g id="line2d_23">
      <g>
       <use xlink:href="#m0ed4180579" x="76.365" y="191.882815" style="fill: #4c4c4c; stroke: #4c4c4c; stroke-width: 0.8"/>
      </g>
     </g>
     <g id="text_8">
      <!-- $\mathdefault{−2}$ -->
      <g style="fill: #4c4c4c" transform="translate(55.105 196.441877) scale(0.12 -0.12)">
       <use xlink:href="#DejaVuSans-2212" transform="translate(0 0.78125)"/>
       <use xlink:href="#DejaVuSans-32" transform="translate(83.789062 0.78125)"/>
      </g>
     </g>
    </g>
    <g id="ytick_3">
     <g id="line2d_24">
      <g>
       <use xlink:href="#m0ed4180579" x="76.365" y="152.132039" style="fill: #4c4c4c; stroke: #4c4c4c; stroke-width: 0.8"/>
      </g>
     </g>
     <g id="text_9">
      <!-- $\mathdefault{−1}$ -->
      <g style="fill: #4c4c4c" transform="translate(55.105 156.691102) scale(0.12 -0.12)">
       <defs>
        <path id="DejaVuSans-31" d="M 794 531 
L 1825 531 
L 1825 4091 
L 703 3866 
L 703 4441 
L 1819 4666 
L 2450 4666 
L 2450 531 
L 3481 531 
L 3481 0 
L 794 0 
L 794 531 
z
" transform="scale(0.015625)"/>
       </defs>
       <use xlink:href="#DejaVuSans-2212" transform="translate(0 0.09375)"/>
       <use xlink:href="#DejaVuSans-31" transform="translate(83.789062 0.09375)"/>
      </g>
     </g>
    </g>
    <g id="ytick_4">
     <g id="line2d_25">
      <g>
       <use xlink:href="#m0ed4180579" x="76.365" y="112.381263" style="fill: #4c4c4c; stroke: #4c4c4c; stroke-width: 0.8"/>
      </g>
     </g>
     <g id="text_10">
      <!-- $\mathdefault{0}$ -->
      <g style="fill: #4c4c4c" transform="translate(65.185 116.940326) scale(0.12 -0.12)">
       <use xlink:href="#DejaVuSans-30" transform="translate(0 0.78125)"/>
      </g>
     </g>
    </g>
    <g id="ytick_5">
     <g id="line2d_26">
      <g>
       <use xlink:href="#m0ed4180579" x="76.365" y="72.630488" style="fill: #4c4c4c; stroke: #4c4c4c; stroke-width: 0.8"/>
      </g>
     </g>
     <g id="text_11">
      <!-- $\mathdefault{1}$ -->
      <g style="fill: #4c4c4c" transform="translate(65.185 77.18955) scale(0.12 -0.12)">
       <use xlink:href="#DejaVuSans-31" transform="translate(0 0.09375)"/>
      </g>
     </g>
    </g>
    <g id="ytick_6">
     <g id="line2d_27">
      <defs>
       <path id="m0c04de6a44" d="M 0 0 
L 4 0 
" style="stroke: #4c4c4c; stroke-width: 0.6"/>
      </defs>
      <g>
       <use xlink:href="#m0c04de6a44" x="76.365" y="255.484056" style="fill: #4c4c4c; stroke: #4c4c4c; stroke-width: 0.6"/>
      </g>
     </g>
    </g>
    <g id="ytick_7">
     <g id="line2d_28">
      <g>
       <use xlink:href="#m0c04de6a44" x="76.365" y="247.533901" style="fill: #4c4c4c; stroke: #4c4c4c; stroke-width: 0.6"/>
      </g>
     </g>
    </g>
    <g id="ytick_8">
     <g id="line2d_29">
      <g>
       <use xlink:href="#m0c04de6a44" x="76.365" y="239.583746" style="fill: #4c4c4c; stroke: #4c4c4c; stroke-width: 0.6"/>
      </g>
     </g>
    </g>
    <g id="ytick_9">
     <g id="line2d_30">
      <g>
       <use xlink:href="#m0c04de6a44" x="76.365" y="223.683436" style="fill: #4c4c4c; stroke: #4c4c4c; stroke-width: 0.6"/>
      </g>
     </g>
    </g>
    <g id="ytick_10">
     <g id="line2d_31">
      <g>
       <use xlink:href="#m0c04de6a44" x="76.365" y="215.73328" style="fill: #4c4c4c; stroke: #4c4c4c; stroke-width: 0.6"/>
      </g>
     </g>
    </g>
    <g id="ytick_11">
     <g id="line2d_32">
      <g>
       <use xlink:href="#m0c04de6a44" x="76.365" y="207.783125" style="fill: #4c4c4c; stroke: #4c4c4c; stroke-width: 0.6"/>
      </g>
     </g>
    </g>
    <g id="ytick_12">
     <g id="line2d_33">
      <g>
       <use xlink:href="#m0c04de6a44" x="76.365" y="199.83297" style="fill: #4c4c4c; stroke: #4c4c4c; stroke-width: 0.6"/>
      </g>
     </g>
    </g>
    <g id="ytick_13">
     <g id="line2d_34">
      <g>
       <use xlink:href="#m0c04de6a44" x="76.365" y="183.93266" style="fill: #4c4c4c; stroke: #4c4c4c; stroke-width: 0.6"/>
      </g>
     </g>
    </g>
    <g id="ytick_14">
     <g id="line2d_35">
      <g>
       <use xlink:href="#m0c04de6a44" x="76.365" y="175.982505" style="fill: #4c4c4c; stroke: #4c4c4c; stroke-width: 0.6"/>
      </g>
     </g>
    </g>
    <g id="ytick_15">
     <g id="line2d_36">
      <g>
       <use xlink:href="#m0c04de6a44" x="76.365" y="168.03235" style="fill: #4c4c4c; stroke: #4c4c4c; stroke-width: 0.6"/>
      </g>
     </g>
    </g>
    <g id="ytick_16">
     <g id="line2d_37">
      <g>
       <use xlink:href="#m0c04de6a44" x="76.365" y="160.082194" style="fill: #4c4c4c; stroke: #4c4c4c; stroke-width: 0.6"/>
      </g>
     </g>
    </g>
    <g id="ytick_17">
     <g id="line2d_38">
      <g>
       <use xlink:href="#m0c04de6a44" x="76.365" y="144.181884" style="fill: #4c4c4c; stroke: #4c4c4c; stroke-width: 0.6"/>
      </g>
     </g>
    </g>
    <g id="ytick_18">
     <g id="line2d_39">
      <g>
       <use xlink:href="#m0c04de6a44" x="76.365" y="136.231729" style="fill: #4c4c4c; stroke: #4c4c4c; stroke-width: 0.6"/>
      </g>
     </g>
    </g>
    <g id="ytick_19">
     <g id="line2d_40">
      <g>
       <use xlink:href="#m0c04de6a44" x="76.365" y="128.281574" style="fill: #4c4c4c; stroke: #4c4c4c; stroke-width: 0.6"/>
      </g>
     </g>
    </g>
    <g id="ytick_20">
     <g id="line2d_41">
      <g>
       <use xlink:href="#m0c04de6a44" x="76.365" y="120.331419" style="fill: #4c4c4c; stroke: #4c4c4c; stroke-width: 0.6"/>
      </g>
     </g>
    </g>
    <g id="ytick_21">
     <g id="line2d_42">
      <g>
       <use xlink:href="#m0c04de6a44" x="76.365" y="104.431108" style="fill: #4c4c4c; stroke: #4c4c4c; stroke-width: 0.6"/>
      </g>
     </g>
    </g>
    <g id="ytick_22">
     <g id="line2d_43">
      <g>
       <use xlink:href="#m0c04de6a44" x="76.365" y="96.480953" style="fill: #4c4c4c; stroke: #4c4c4c; stroke-width: 0.6"/>
      </g>
     </g>
    </g>
    <g id="ytick_23">
     <g id="line2d_44">
      <g>
       <use xlink:href="#m0c04de6a44" x="76.365" y="88.530798" style="fill: #4c4c4c; stroke: #4c4c4c; stroke-width: 0.6"/>
      </g>
     </g>
    </g>
    <g id="ytick_24">
     <g id="line2d_45">
      <g>
       <use xlink:href="#m0c04de6a44" x="76.365" y="80.580643" style="fill: #4c4c4c; stroke: #4c4c4c; stroke-width: 0.6"/>
      </g>
     </g>
    </g>
    <g id="ytick_25">
     <g id="line2d_46">
      <g>
       <use xlink:href="#m0c04de6a44" x="76.365" y="64.680332" style="fill: #4c4c4c; stroke: #4c4c4c; stroke-width: 0.6"/>
      </g>
     </g>
    </g>
    <g id="ytick_26">
     <g id="line2d_47">
      <g>
       <use xlink:href="#m0c04de6a44" x="76.365" y="56.730177" style="fill: #4c4c4c; stroke: #4c4c4c; stroke-width: 0.6"/>
      </g>
     </g>
    </g>
    <g id="ytick_27">
     <g id="line2d_48">
      <g>
       <use xlink:href="#m0c04de6a44" x="76.365" y="48.780022" style="fill: #4c4c4c; stroke: #4c4c4c; stroke-width: 0.6"/>
      </g>
     </g>
    </g>
    <g id="ytick_28">
     <g id="line2d_49">
      <g>
       <use xlink:href="#m0c04de6a44" x="76.365" y="40.829867" style="fill: #4c4c4c; stroke: #4c4c4c; stroke-width: 0.6"/>
      </g>
     </g>
    </g>
    <g id="text_12">
     <!-- Normalized Flux -->
     <g style="fill: #4c4c4c" transform="translate(47.985469 205.94625) rotate(-90) scale(0.15 -0.15)">
      <defs>
       <path id="DejaVuSans-4e" d="M 628 4666 
L 1478 4666 
L 3547 763 
L 3547 4666 
L 4159 4666 
L 4159 0 
L 3309 0 
L 1241 3903 
L 1241 0 
L 628 0 
L 628 4666 
z
" transform="scale(0.015625)"/>
       <path id="DejaVuSans-6f" d="M 1959 3097 
Q 1497 3097 1228 2736 
Q 959 2375 959 1747 
Q 959 1119 1226 758 
Q 1494 397 1959 397 
Q 2419 397 2687 759 
Q 2956 1122 2956 1747 
Q 2956 2369 2687 2733 
Q 2419 3097 1959 3097 
z
M 1959 3584 
Q 2709 3584 3137 3096 
Q 3566 2609 3566 1747 
Q 3566 888 3137 398 
Q 2709 -91 1959 -91 
Q 1206 -91 779 398 
Q 353 888 353 1747 
Q 353 2609 779 3096 
Q 1206 3584 1959 3584 
z
" transform="scale(0.015625)"/>
       <path id="DejaVuSans-72" d="M 2631 2963 
Q 2534 3019 2420 3045 
Q 2306 3072 2169 3072 
Q 1681 3072 1420 2755 
Q 1159 2438 1159 1844 
L 1159 0 
L 581 0 
L 581 3500 
L 1159 3500 
L 1159 2956 
Q 1341 3275 1631 3429 
Q 1922 3584 2338 3584 
Q 2397 3584 2469 3576 
Q 2541 3569 2628 3553 
L 2631 2963 
z
" transform="scale(0.015625)"/>
       <path id="DejaVuSans-6d" d="M 3328 2828 
Q 3544 3216 3844 3400 
Q 4144 3584 4550 3584 
Q 5097 3584 5394 3201 
Q 5691 2819 5691 2113 
L 5691 0 
L 5113 0 
L 5113 2094 
Q 5113 2597 4934 2840 
Q 4756 3084 4391 3084 
Q 3944 3084 3684 2787 
Q 3425 2491 3425 1978 
L 3425 0 
L 2847 0 
L 2847 2094 
Q 2847 2600 2669 2842 
Q 2491 3084 2119 3084 
Q 1678 3084 1418 2786 
Q 1159 2488 1159 1978 
L 1159 0 
L 581 0 
L 581 3500 
L 1159 3500 
L 1159 2956 
Q 1356 3278 1631 3431 
Q 1906 3584 2284 3584 
Q 2666 3584 2933 3390 
Q 3200 3197 3328 2828 
z
" transform="scale(0.015625)"/>
       <path id="DejaVuSans-6c" d="M 603 4863 
L 1178 4863 
L 1178 0 
L 603 0 
L 603 4863 
z
" transform="scale(0.015625)"/>
       <path id="DejaVuSans-69" d="M 603 3500 
L 1178 3500 
L 1178 0 
L 603 0 
L 603 3500 
z
M 603 4863 
L 1178 4863 
L 1178 4134 
L 603 4134 
L 603 4863 
z
" transform="scale(0.015625)"/>
       <path id="DejaVuSans-7a" d="M 353 3500 
L 3084 3500 
L 3084 2975 
L 922 459 
L 3084 459 
L 3084 0 
L 275 0 
L 275 525 
L 2438 3041 
L 353 3041 
L 353 3500 
z
" transform="scale(0.015625)"/>
       <path id="DejaVuSans-64" d="M 2906 2969 
L 2906 4863 
L 3481 4863 
L 3481 0 
L 2906 0 
L 2906 525 
Q 2725 213 2448 61 
Q 2172 -91 1784 -91 
Q 1150 -91 751 415 
Q 353 922 353 1747 
Q 353 2572 751 3078 
Q 1150 3584 1784 3584 
Q 2172 3584 2448 3432 
Q 2725 3281 2906 2969 
z
M 947 1747 
Q 947 1113 1208 752 
Q 1469 391 1925 391 
Q 2381 391 2643 752 
Q 2906 1113 2906 1747 
Q 2906 2381 2643 2742 
Q 2381 3103 1925 3103 
Q 1469 3103 1208 2742 
Q 947 2381 947 1747 
z
" transform="scale(0.015625)"/>
       <path id="DejaVuSans-46" d="M 628 4666 
L 3309 4666 
L 3309 4134 
L 1259 4134 
L 1259 2759 
L 3109 2759 
L 3109 2228 
L 1259 2228 
L 1259 0 
L 628 0 
L 628 4666 
z
" transform="scale(0.015625)"/>
       <path id="DejaVuSans-75" d="M 544 1381 
L 544 3500 
L 1119 3500 
L 1119 1403 
Q 1119 906 1312 657 
Q 1506 409 1894 409 
Q 2359 409 2629 706 
Q 2900 1003 2900 1516 
L 2900 3500 
L 3475 3500 
L 3475 0 
L 2900 0 
L 2900 538 
Q 2691 219 2414 64 
Q 2138 -91 1772 -91 
Q 1169 -91 856 284 
Q 544 659 544 1381 
z
M 1991 3584 
L 1991 3584 
z
" transform="scale(0.015625)"/>
       <path id="DejaVuSans-78" d="M 3513 3500 
L 2247 1797 
L 3578 0 
L 2900 0 
L 1881 1375 
L 863 0 
L 184 0 
L 1544 1831 
L 300 3500 
L 978 3500 
L 1906 2253 
L 2834 3500 
L 3513 3500 
z
" transform="scale(0.015625)"/>
      </defs>
      <use xlink:href="#DejaVuSans-4e"/>
      <use xlink:href="#DejaVuSans-6f" transform="translate(74.804688 0)"/>
      <use xlink:href="#DejaVuSans-72" transform="translate(135.986328 0)"/>
      <use xlink:href="#DejaVuSans-6d" transform="translate(175.349609 0)"/>
      <use xlink:href="#DejaVuSans-61" transform="translate(272.761719 0)"/>
      <use xlink:href="#DejaVuSans-6c" transform="translate(334.041016 0)"/>
      <use xlink:href="#DejaVuSans-69" transform="translate(361.824219 0)"/>
      <use xlink:href="#DejaVuSans-7a" transform="translate(389.607422 0)"/>
      <use xlink:href="#DejaVuSans-65" transform="translate(442.097656 0)"/>
      <use xlink:href="#DejaVuSans-64" transform="translate(503.621094 0)"/>
      <use xlink:href="#DejaVuSans-20" transform="translate(567.097656 0)"/>
      <use xlink:href="#DejaVuSans-46" transform="translate(598.884766 0)"/>
      <use xlink:href="#DejaVuSans-6c" transform="translate(656.404297 0)"/>
      <use xlink:href="#DejaVuSans-75" transform="translate(684.1875 0)"/>
      <use xlink:href="#DejaVuSans-78" transform="translate(747.566406 0)"/>
     </g>
    </g>
    <g id="text_13">
     <!-- $\times\mathdefault{10^{−5}}\mathdefault{+1}$ -->
     <g style="fill: #4c4c4c" transform="translate(76.365 31.56) scale(0.12 -0.12)">
      <defs>
       <path id="DejaVuSans-d7" d="M 4488 3438 
L 3059 2003 
L 4488 575 
L 4116 197 
L 2681 1631 
L 1247 197 
L 878 575 
L 2303 2003 
L 878 3438 
L 1247 3816 
L 2681 2381 
L 4116 3816 
L 4488 3438 
z
" transform="scale(0.015625)"/>
       <path id="DejaVuSans-35" d="M 691 4666 
L 3169 4666 
L 3169 4134 
L 1269 4134 
L 1269 2991 
Q 1406 3038 1543 3061 
Q 1681 3084 1819 3084 
Q 2600 3084 3056 2656 
Q 3513 2228 3513 1497 
Q 3513 744 3044 326 
Q 2575 -91 1722 -91 
Q 1428 -91 1123 -41 
Q 819 9 494 109 
L 494 744 
Q 775 591 1075 516 
Q 1375 441 1709 441 
Q 2250 441 2565 725 
Q 2881 1009 2881 1497 
Q 2881 1984 2565 2268 
Q 2250 2553 1709 2553 
Q 1456 2553 1204 2497 
Q 953 2441 691 2322 
L 691 4666 
z
" transform="scale(0.015625)"/>
       <path id="DejaVuSans-2b" d="M 2944 4013 
L 2944 2272 
L 4684 2272 
L 4684 1741 
L 2944 1741 
L 2944 0 
L 2419 0 
L 2419 1741 
L 678 1741 
L 678 2272 
L 2419 2272 
L 2419 4013 
L 2944 4013 
z
" transform="scale(0.015625)"/>
      </defs>
      <use xlink:href="#DejaVuSans-d7" transform="translate(0 0.684375)"/>
      <use xlink:href="#DejaVuSans-31" transform="translate(83.789062 0.684375)"/>
      <use xlink:href="#DejaVuSans-30" transform="translate(147.412109 0.684375)"/>
      <use xlink:href="#DejaVuSans-2212" transform="translate(211.992188 38.965625) scale(0.7)"/>
      <use xlink:href="#DejaVuSans-35" transform="translate(270.644531 38.965625) scale(0.7)"/>
      <use xlink:href="#DejaVuSans-2b" transform="translate(317.915039 0.684375)"/>
      <use xlink:href="#DejaVuSans-31" transform="translate(401.704102 0.684375)"/>
     </g>
    </g>
   </g>
   <g id="line2d_50">
    <path d="M 97.886045 71.303151 
L 98.501812 89.291949 
L 99.117579 122.373723 
L 100.349112 86.205074 
L 100.964879 96.386272 
L 101.580646 51.626157 
L 102.196412 128.229068 
L 102.812179 102.046982 
L 103.427946 97.327889 
L 104.043712 106.358209 
L 104.659479 97.113058 
L 105.275246 108.48913 
L 105.891012 105.810032 
L 106.506779 121.952945 
L 107.122546 104.711649 
L 107.738312 105.513559 
L 108.354079 114.666733 
L 108.969846 114.325136 
L 109.585612 102.638521 
L 110.201379 78.67731 
L 110.817146 73.487327 
L 111.432912 83.243635 
L 112.048679 131.403261 
L 112.664446 106.195859 
L 113.280212 102.61895 
L 113.895979 92.958484 
L 114.511746 73.036575 
L 115.127512 113.815427 
L 115.743279 124.431661 
L 116.359046 110.051103 
L 116.974813 107.580609 
L 117.590579 68.901108 
L 118.206346 118.890171 
L 118.822113 86.466646 
L 119.437879 97.946962 
L 120.669413 87.365859 
L 121.285179 129.043597 
L 121.900946 140.31442 
L 122.516713 69.335714 
L 123.132479 80.068267 
L 123.748246 99.405335 
L 124.364013 112.064065 
L 124.979779 169.292543 
L 125.595546 105.933582 
L 126.211313 92.234122 
L 126.827079 93.508915 
L 127.442846 131.667864 
L 128.058613 131.858106 
L 129.290146 88.673176 
L 129.905913 86.059036 
L 130.521679 102.477864 
L 131.137446 128.792515 
L 131.753213 75.618553 
L 132.36898 77.584718 
L 132.984746 105.047744 
L 134.21628 127.700229 
L 134.832046 93.908733 
L 135.447813 111.626963 
L 136.06358 92.585791 
L 136.679346 129.472027 
L 137.295113 126.675915 
L 137.91088 100.258137 
L 138.526646 102.255912 
L 139.75818 83.664187 
L 140.373946 114.94162 
L 140.989713 128.714347 
L 141.60548 93.31376 
L 142.221246 82.471276 
L 142.837013 106.969231 
L 143.45278 116.627896 
L 144.068546 129.77976 
L 144.684313 135.662799 
L 145.30008 103.636509 
L 145.915846 114.064177 
L 146.531613 140.351618 
L 147.14738 125.088114 
L 147.763147 96.113024 
L 148.378913 107.247118 
L 148.99468 115.527848 
L 149.610447 82.141403 
L 150.226213 100.051655 
L 150.84198 104.308845 
L 151.457747 66.701411 
L 152.073513 148.151565 
L 152.68928 78.548159 
L 153.305047 118.80081 
L 154.53658 93.482819 
L 155.152347 94.259068 
L 155.768113 89.915529 
L 156.38388 88.212087 
L 156.999647 120.210145 
L 157.615413 93.896815 
L 158.23118 101.25819 
L 158.846947 112.362051 
L 159.462713 120.320585 
L 160.07848 96.720195 
L 160.694247 89.046135 
L 161.310013 90.779266 
L 161.92578 86.550749 
L 162.541547 101.496177 
L 163.157313 71.068848 
L 163.77308 99.388359 
L 164.388847 114.270155 
L 165.004614 100.944174 
L 165.62038 98.920294 
L 166.236147 94.098859 
L 166.851914 109.002459 
L 167.46768 104.919467 
L 168.083447 114.900639 
L 168.699214 121.998089 
L 169.930747 83.095252 
L 170.546514 71.666332 
L 171.16228 77.990802 
L 171.778047 76.721482 
L 172.393814 134.269877 
L 173.00958 99.586854 
L 173.625347 114.818027 
L 174.241114 140.027202 
L 174.85688 75.081018 
L 175.472647 96.875109 
L 176.088414 92.524295 
L 176.70418 79.405892 
L 177.319947 93.611143 
L 177.935714 84.541762 
L 178.55148 132.720223 
L 179.167247 77.332833 
L 179.783014 78.066882 
L 180.398781 77.872396 
L 181.014547 90.663756 
L 181.630314 116.728935 
L 182.246081 81.625251 
L 182.861847 113.938519 
L 183.477614 99.452265 
L 184.093381 79.892264 
L 184.709147 89.738064 
L 185.324914 127.44171 
L 185.940681 92.943259 
L 186.556447 94.252034 
L 187.172214 91.489448 
L 187.787981 87.014428 
L 188.403747 107.39869 
L 189.019514 61.33696 
L 189.635281 55.10016 
L 190.866814 120.964077 
L 191.482581 99.900722 
L 192.098347 113.323195 
L 192.714114 114.747179 
L 193.329881 109.17902 
L 193.945647 101.567441 
L 194.561414 86.908931 
L 195.177181 88.704006 
L 195.792948 63.488903 
L 196.408714 99.818389 
L 197.024481 104.716987 
L 197.640248 123.909721 
L 198.256014 104.972315 
L 198.871781 68.062358 
L 199.487548 84.825489 
L 200.103314 138.439481 
L 200.719081 105.206008 
L 201.334848 113.793596 
L 202.566381 83.465002 
L 203.182148 97.833046 
L 203.797914 71.290833 
L 204.413681 91.277193 
L 205.029448 54.077447 
L 205.645214 115.152327 
L 206.260981 89.222932 
L 206.876748 120.327379 
L 207.492514 104.353837 
L 208.108281 83.188181 
L 208.724048 104.005802 
L 209.339814 93.504561 
L 209.955581 89.416175 
L 210.571348 78.031205 
L 211.187115 110.432944 
L 211.802881 94.932655 
L 212.418648 70.109542 
L 213.034415 98.113313 
L 213.650181 103.110552 
L 214.265948 90.760132 
L 214.881715 97.74257 
L 215.497481 85.980443 
L 216.113248 90.845216 
L 216.729015 155.361475 
L 217.344781 60.758718 
L 217.960548 77.444432 
L 218.576315 126.165791 
L 219.192081 88.233039 
L 219.807848 95.651705 
L 220.423615 97.238304 
L 221.039381 132.071181 
L 221.655148 99.680312 
L 222.270915 95.201423 
L 222.886681 104.171838 
L 223.502448 105.935951 
L 224.118215 49.132445 
L 224.733981 98.928928 
L 225.349748 71.079726 
L 225.965515 100.997433 
L 226.581282 121.294841 
L 227.812815 80.575804 
L 228.428582 120.040899 
L 229.044348 128.308074 
L 229.660115 130.324489 
L 230.275882 116.489268 
L 230.891648 75.079417 
L 231.507415 124.231624 
L 232.123182 85.671711 
L 232.738948 137.225523 
L 233.354715 90.575824 
L 233.970482 87.216927 
L 234.586248 85.996405 
L 235.202015 124.290033 
L 237.049315 75.067426 
L 237.665082 111.609507 
L 238.280848 126.658761 
L 238.896615 103.002867 
L 239.512382 120.140987 
L 240.128148 82.072074 
L 240.743915 100.306973 
L 241.359682 83.440761 
L 241.975448 100.347448 
L 242.591215 87.758802 
L 243.206982 128.899104 
L 243.822749 99.805363 
L 244.438515 80.791978 
L 245.054282 104.984643 
L 245.670049 139.259318 
L 246.285815 74.633886 
L 246.901582 96.466856 
L 247.517349 88.688119 
L 248.133115 141.865448 
L 248.748882 91.054848 
L 249.364649 136.102664 
L 249.980415 117.323238 
L 250.596182 76.836758 
L 251.211949 96.84393 
L 251.827715 126.02554 
L 252.443482 104.290206 
L 253.059249 123.461042 
L 253.675015 101.81546 
L 254.290782 126.408474 
L 254.906549 138.512547 
L 255.522315 87.324334 
L 256.138082 111.254066 
L 256.753849 115.569457 
L 257.369615 108.99545 
L 257.985382 95.5229 
L 258.601149 124.913653 
L 259.216916 121.216275 
L 259.832682 127.635462 
L 260.448449 83.952319 
L 261.064216 105.935062 
L 261.679982 110.773041 
L 262.295749 83.258416 
L 262.911516 131.508901 
L 263.527282 132.083074 
L 264.143049 130.01453 
L 264.758816 101.20269 
L 265.374582 94.482994 
L 265.990349 106.992455 
L 266.606116 101.151341 
L 267.221882 99.954087 
L 267.837649 119.227584 
L 268.453416 142.98131 
L 269.069182 130.328231 
L 269.684949 129.986229 
L 270.300716 157.243422 
L 270.916482 72.152025 
L 271.532249 101.085162 
L 272.148016 104.146484 
L 272.763782 111.58876 
L 273.379549 88.549648 
L 273.995316 100.747879 
L 274.611083 96.590795 
L 275.226849 123.18778 
L 275.842616 108.62157 
L 276.458383 116.076958 
L 277.074149 117.465356 
L 277.689916 114.056288 
L 278.305683 139.458258 
L 278.921449 173.393773 
L 279.537216 112.517755 
L 280.152983 170.128195 
L 280.768749 102.613578 
L 281.384516 181.370923 
L 282.000283 181.571222 
L 282.616049 192.832966 
L 283.231816 179.519644 
L 283.847583 159.877354 
L 284.463349 177.14327 
L 285.079116 189.244714 
L 285.694883 169.00754 
L 286.310649 171.525268 
L 286.926416 154.150529 
L 287.542183 215.131556 
L 288.157949 225.387736 
L 288.773716 163.712171 
L 289.389483 140.982133 
L 290.00525 147.709439 
L 290.621016 201.156302 
L 291.236783 225.074381 
L 291.85255 185.223844 
L 292.468316 224.11433 
L 293.084083 165.752793 
L 293.69985 235.504776 
L 294.315616 231.448733 
L 294.931383 208.163638 
L 295.54715 194.929385 
L 296.162916 156.474691 
L 296.778683 209.318258 
L 297.39445 232.355546 
L 298.010216 188.048523 
L 298.625983 198.05225 
L 299.24175 174.976729 
L 299.857516 124.616946 
L 300.473283 229.086511 
L 301.08905 213.366519 
L 301.704816 228.159946 
L 302.320583 184.07788 
L 302.93635 188.567181 
L 303.552116 162.162102 
L 304.167883 246.24 
L 304.78365 182.634025 
L 305.399417 182.022732 
L 306.015183 220.541692 
L 306.63095 215.255381 
L 307.246717 240.94867 
L 308.47825 172.081733 
L 309.094017 173.819224 
L 309.709783 191.194297 
L 310.32555 183.187297 
L 310.941317 206.556864 
L 311.557083 147.754938 
L 312.17285 197.06624 
L 312.788617 212.34568 
L 313.404383 223.81048 
L 314.02015 207.913455 
L 314.635917 230.128954 
L 315.251683 144.457472 
L 315.86745 238.02716 
L 316.483217 227.922799 
L 317.098983 211.770953 
L 317.71475 183.359445 
L 318.330517 187.368628 
L 318.946283 159.966664 
L 319.56205 215.273312 
L 320.177817 188.892397 
L 320.793583 184.192213 
L 321.40935 165.907303 
L 322.025117 218.298772 
L 322.640884 229.780667 
L 323.25665 225.363795 
L 323.872417 197.616076 
L 324.488184 194.175772 
L 325.10395 229.448423 
L 325.719717 207.709116 
L 326.335484 225.594182 
L 326.95125 157.697269 
L 327.567017 182.917399 
L 328.182784 172.202307 
L 328.79855 213.889451 
L 329.414317 220.438988 
L 330.030084 186.656314 
L 330.64585 170.846023 
L 331.261617 208.491935 
L 331.877384 207.762404 
L 332.49315 163.948677 
L 333.108917 201.170313 
L 333.724684 191.321535 
L 334.34045 184.486897 
L 334.956217 193.851477 
L 335.571984 178.632125 
L 336.18775 170.918453 
L 336.803517 179.914684 
L 337.419284 185.234323 
L 338.035051 161.899361 
L 338.650817 199.27587 
L 339.266584 176.504004 
L 339.882351 179.608971 
L 340.498117 180.693017 
L 341.729651 208.268355 
L 342.345417 173.20064 
L 342.961184 169.55884 
L 343.576951 133.860425 
L 344.192717 173.918408 
L 344.808484 119.560629 
L 345.424251 176.841198 
L 346.040017 143.104441 
L 346.655784 135.733022 
L 347.271551 168.521882 
L 347.887317 134.024799 
L 348.503084 111.302937 
L 349.118851 132.871384 
L 349.734617 111.364579 
L 350.350384 105.583102 
L 350.966151 123.148642 
L 351.581917 108.942337 
L 352.197684 103.227502 
L 352.813451 118.905073 
L 353.429218 81.69441 
L 354.044984 63.711092 
L 354.660751 99.029753 
L 355.276518 114.563707 
L 355.892284 84.677709 
L 356.508051 123.532088 
L 357.123818 112.750732 
L 357.739584 85.921032 
L 358.355351 136.181857 
L 358.971118 87.201081 
L 359.586884 120.377592 
L 360.202651 139.534398 
L 360.818418 144.406333 
L 361.434184 93.959174 
L 362.049951 146.612753 
L 362.665718 100.419057 
L 363.281484 74.874572 
L 363.897251 81.040841 
L 364.513018 121.408631 
L 365.128784 109.742978 
L 365.744551 128.736052 
L 366.976084 110.772875 
L 367.591851 103.437925 
L 368.207618 89.272215 
L 368.823385 96.470617 
L 369.439151 122.818143 
L 370.054918 93.462559 
L 370.670685 120.181794 
L 371.286451 80.588809 
L 371.902218 152.411369 
L 372.517985 89.251484 
L 373.133751 71.193641 
L 373.749518 121.744435 
L 374.365285 94.090901 
L 374.981051 107.98862 
L 375.596818 86.562936 
L 376.212585 115.489828 
L 376.828351 71.964672 
L 377.444118 101.499849 
L 378.059885 72.090952 
L 379.291418 140.127578 
L 379.907185 133.950985 
L 380.522951 68.410049 
L 381.138718 105.91294 
L 381.754485 99.677353 
L 382.370251 120.9629 
L 382.986018 113.902207 
L 383.601785 95.839064 
L 384.217552 92.573554 
L 384.833318 126.343984 
L 386.064852 84.357853 
L 386.680618 93.592547 
L 387.296385 134.061025 
L 387.912152 138.474037 
L 388.527918 132.571411 
L 389.143685 105.927402 
L 389.759452 70.227156 
L 390.375218 82.56859 
L 390.990985 110.243067 
L 391.606752 88.00149 
L 392.222518 117.63555 
L 392.838285 98.033318 
L 393.454052 83.25634 
L 394.069818 108.301892 
L 394.685585 117.540388 
L 395.301352 80.944884 
L 395.917118 88.025241 
L 396.532885 88.772109 
L 397.148652 97.081744 
L 397.764418 127.435291 
L 398.380185 132.670024 
L 398.995952 106.968075 
L 399.611718 135.622608 
L 400.227485 99.75846 
L 400.843252 72.248506 
L 402.074785 91.904093 
L 402.690552 69.617752 
L 403.922085 122.074049 
L 404.537852 120.532374 
L 405.769385 55.059979 
L 406.385152 114.323419 
L 407.000919 93.338452 
L 407.616685 97.408191 
L 408.232452 109.729369 
L 408.848219 111.261449 
L 409.463985 92.268595 
L 410.079752 85.358957 
L 410.695519 97.928074 
L 411.311285 99.008885 
L 411.927052 111.131891 
L 412.542819 109.578204 
L 413.158585 104.771076 
L 413.774352 87.714664 
L 415.005885 108.994295 
L 415.621652 94.908717 
L 416.237419 112.981416 
L 416.853186 119.629435 
L 417.468952 115.657341 
L 418.084719 117.745729 
L 418.700486 81.345492 
L 419.316252 51.795262 
L 419.932019 89.586962 
L 420.547786 107.279596 
L 421.163552 96.906643 
L 421.779319 117.378368 
L 422.395086 115.919079 
L 423.010852 101.620549 
L 423.626619 100.906569 
L 424.242386 98.593568 
L 424.858152 78.773765 
L 425.473919 114.897421 
L 426.089686 109.256202 
L 426.705452 114.150889 
L 427.321219 112.777654 
L 427.936986 44.64 
L 428.552752 88.95521 
L 429.168519 99.959065 
L 429.784286 87.623295 
L 430.400052 91.979693 
L 431.015819 91.343957 
L 431.631586 109.212167 
L 432.247353 92.980078 
L 432.863119 92.643906 
L 433.478886 121.426889 
L 434.094653 75.795485 
L 434.710419 128.223688 
L 435.326186 97.8544 
L 435.941953 89.921852 
L 436.557719 110.989993 
L 437.173486 107.673489 
L 437.789253 58.556518 
L 438.405019 91.566164 
L 439.020786 132.031078 
L 439.636553 110.59952 
L 440.252319 95.489256 
L 440.868086 97.809628 
L 441.483853 132.636923 
L 442.099619 126.8936 
L 442.715386 109.163954 
L 443.331153 112.658732 
L 443.946919 74.586378 
L 444.562686 94.874168 
L 445.178453 88.665057 
L 445.794219 83.643931 
L 446.409986 109.881835 
L 447.025753 52.86855 
L 447.64152 143.231481 
L 448.257286 76.566681 
L 448.873053 79.408159 
L 449.48882 89.294435 
L 450.104586 104.387309 
L 450.720353 87.392908 
L 451.33612 102.425261 
L 451.951886 106.656173 
L 452.567653 114.993653 
L 453.18342 100.975371 
L 453.799186 77.778069 
L 454.414953 106.220157 
L 455.03072 105.397726 
L 455.646486 101.138442 
L 456.262253 72.592427 
L 456.87802 78.254697 
L 457.493786 106.438923 
L 458.109553 111.730937 
L 458.72532 83.243055 
L 459.341086 97.653008 
L 459.956853 99.856522 
L 460.57262 92.196028 
L 461.188386 115.63526 
L 461.804153 87.265107 
L 462.41992 78.236972 
L 463.035687 101.502557 
L 463.651453 112.579146 
L 464.26722 97.311632 
L 464.882987 109.163444 
L 465.498753 83.787234 
L 466.11452 101.792143 
L 466.730287 93.70573 
L 467.346053 103.521306 
L 467.96182 83.582909 
L 468.577587 112.153669 
L 469.193353 101.553711 
L 469.80912 87.173206 
L 470.424887 126.727065 
L 471.040653 56.008622 
L 471.65642 101.47077 
L 472.272187 69.234897 
L 472.887953 109.166067 
L 473.50372 119.952943 
L 474.119487 101.238462 
L 474.735253 93.635994 
L 475.35102 91.452653 
L 475.966787 86.395173 
L 476.582553 116.566112 
L 477.19832 93.617113 
L 477.814087 112.65931 
L 478.429853 61.749936 
L 479.04562 65.390954 
L 479.661387 101.03975 
L 480.277154 153.425443 
L 480.89292 93.996227 
L 481.508687 84.698973 
L 482.124454 88.132422 
L 482.74022 102.085067 
L 483.355987 98.783726 
L 483.971754 98.856485 
L 484.58752 100.249015 
L 485.203287 108.260875 
L 485.819054 92.499669 
L 486.43482 126.28559 
L 487.050587 116.825679 
L 488.28212 87.03562 
L 488.897887 108.741845 
L 489.513654 118.198737 
L 490.12942 115.009479 
L 490.745187 135.634304 
L 491.360954 98.236378 
L 491.97672 101.655654 
L 492.592487 117.135925 
L 493.208254 110.364179 
L 493.82402 86.063125 
L 494.439787 78.201147 
L 495.055554 107.599958 
L 496.287087 132.536779 
L 496.902854 74.336754 
L 497.518621 88.757913 
L 498.134387 96.983962 
L 498.750154 122.054856 
L 499.365921 130.974038 
L 499.981687 97.398252 
L 500.597454 109.332688 
L 501.213221 94.269359 
L 501.828987 138.917678 
L 503.060521 69.82535 
L 503.676287 93.749103 
L 504.292054 78.278546 
L 504.907821 118.722627 
L 505.523587 88.346394 
L 506.139354 79.451755 
L 506.755121 96.997784 
L 507.370887 99.418292 
L 507.986654 106.887428 
L 508.602421 125.778533 
L 509.218187 64.667859 
L 509.833954 80.700573 
L 510.449721 83.13426 
L 511.065488 147.587717 
L 511.681254 107.787665 
L 512.297021 119.129939 
L 512.912788 110.593841 
L 513.528554 91.056847 
L 514.144321 113.488388 
L 514.760088 94.903998 
L 515.375854 96.613614 
L 515.991621 92.112955 
L 516.607388 113.546427 
L 517.223154 107.464529 
L 517.838921 88.32338 
L 518.454688 141.812598 
L 519.070454 90.624916 
L 519.686221 77.520929 
L 520.301988 115.545866 
L 520.917754 99.630182 
L 521.533521 114.045368 
L 522.149288 71.181558 
L 522.765054 102.26732 
L 523.380821 110.381747 
L 523.996588 110.879241 
L 524.612354 119.634973 
L 525.843888 70.647856 
L 526.459655 147.146987 
L 527.075421 93.677713 
L 527.691188 151.760158 
L 528.306955 97.843411 
L 528.306955 97.843411 
" clip-path="url(#pb7fa3b2418)" style="fill: none; stroke: #333333; stroke-width: 0.5; stroke-linecap: square"/>
   </g>
   <g id="patch_3">
    <path d="M 76.365 256.32 
L 76.365 34.56 
" style="fill: none; stroke: #4c4c4c; stroke-width: 0.8; stroke-linejoin: miter; stroke-linecap: square"/>
   </g>
   <g id="patch_4">
    <path d="M 549.828 256.32 
L 549.828 34.56 
" style="fill: none; stroke: #4c4c4c; stroke-width: 0.8; stroke-linejoin: miter; stroke-linecap: square"/>
   </g>
   <g id="patch_5">
    <path d="M 76.365 256.32 
L 549.828 256.32 
" style="fill: none; stroke: #4c4c4c; stroke-width: 0.8; stroke-linejoin: miter; stroke-linecap: square"/>
   </g>
   <g id="patch_6">
    <path d="M 76.365 34.56 
L 549.828 34.56 
" style="fill: none; stroke: #4c4c4c; stroke-width: 0.8; stroke-linejoin: miter; stroke-linecap: square"/>
   </g>
   <g id="legend_1">
    <g id="patch_7">
     <path d="M 84.065 250.82 
L 189.891875 250.82 
Q 192.091875 250.82 192.091875 248.62 
L 192.091875 233.574062 
Q 192.091875 231.374063 189.891875 231.374063 
L 84.065 231.374063 
Q 81.865 231.374063 81.865 233.574062 
L 81.865 248.62 
Q 81.865 250.82 84.065 250.82 
z
" style="fill: #ffffff; opacity: 0.8; stroke: #4c4c4c; stroke-linejoin: miter"/>
    </g>
    <g id="line2d_51">
     <path d="M 89.565 240.282344 
L 97.265 240.282344 
L 104.965 240.282344 
" style="fill: none; stroke: #333333; stroke-width: 0.5; stroke-linecap: square"/>
    </g>
    <g id="text_14">
     <!-- KIC 3632418 -->
     <g style="fill: #4c4c4c" transform="translate(117.065 244.132344) scale(0.11 -0.11)">
      <defs>
       <path id="DejaVuSans-4b" d="M 628 4666 
L 1259 4666 
L 1259 2694 
L 3353 4666 
L 4166 4666 
L 1850 2491 
L 4331 0 
L 3500 0 
L 1259 2247 
L 1259 0 
L 628 0 
L 628 4666 
z
" transform="scale(0.015625)"/>
       <path id="DejaVuSans-49" d="M 628 4666 
L 1259 4666 
L 1259 0 
L 628 0 
L 628 4666 
z
" transform="scale(0.015625)"/>
       <path id="DejaVuSans-43" d="M 4122 4306 
L 4122 3641 
Q 3803 3938 3442 4084 
Q 3081 4231 2675 4231 
Q 1875 4231 1450 3742 
Q 1025 3253 1025 2328 
Q 1025 1406 1450 917 
Q 1875 428 2675 428 
Q 3081 428 3442 575 
Q 3803 722 4122 1019 
L 4122 359 
Q 3791 134 3420 21 
Q 3050 -91 2638 -91 
Q 1578 -91 968 557 
Q 359 1206 359 2328 
Q 359 3453 968 4101 
Q 1578 4750 2638 4750 
Q 3056 4750 3426 4639 
Q 3797 4528 4122 4306 
z
" transform="scale(0.015625)"/>
       <path id="DejaVuSans-36" d="M 2113 2584 
Q 1688 2584 1439 2293 
Q 1191 2003 1191 1497 
Q 1191 994 1439 701 
Q 1688 409 2113 409 
Q 2538 409 2786 701 
Q 3034 994 3034 1497 
Q 3034 2003 2786 2293 
Q 2538 2584 2113 2584 
z
M 3366 4563 
L 3366 3988 
Q 3128 4100 2886 4159 
Q 2644 4219 2406 4219 
Q 1781 4219 1451 3797 
Q 1122 3375 1075 2522 
Q 1259 2794 1537 2939 
Q 1816 3084 2150 3084 
Q 2853 3084 3261 2657 
Q 3669 2231 3669 1497 
Q 3669 778 3244 343 
Q 2819 -91 2113 -91 
Q 1303 -91 875 529 
Q 447 1150 447 2328 
Q 447 3434 972 4092 
Q 1497 4750 2381 4750 
Q 2619 4750 2861 4703 
Q 3103 4656 3366 4563 
z
" transform="scale(0.015625)"/>
       <path id="DejaVuSans-38" d="M 2034 2216 
Q 1584 2216 1326 1975 
Q 1069 1734 1069 1313 
Q 1069 891 1326 650 
Q 1584 409 2034 409 
Q 2484 409 2743 651 
Q 3003 894 3003 1313 
Q 3003 1734 2745 1975 
Q 2488 2216 2034 2216 
z
M 1403 2484 
Q 997 2584 770 2862 
Q 544 3141 544 3541 
Q 544 4100 942 4425 
Q 1341 4750 2034 4750 
Q 2731 4750 3128 4425 
Q 3525 4100 3525 3541 
Q 3525 3141 3298 2862 
Q 3072 2584 2669 2484 
Q 3125 2378 3379 2068 
Q 3634 1759 3634 1313 
Q 3634 634 3220 271 
Q 2806 -91 2034 -91 
Q 1263 -91 848 271 
Q 434 634 434 1313 
Q 434 1759 690 2068 
Q 947 2378 1403 2484 
z
M 1172 3481 
Q 1172 3119 1398 2916 
Q 1625 2713 2034 2713 
Q 2441 2713 2670 2916 
Q 2900 3119 2900 3481 
Q 2900 3844 2670 4047 
Q 2441 4250 2034 4250 
Q 1625 4250 1398 4047 
Q 1172 3844 1172 3481 
z
" transform="scale(0.015625)"/>
      </defs>
      <use xlink:href="#DejaVuSans-4b"/>
      <use xlink:href="#DejaVuSans-49" transform="translate(65.576172 0)"/>
      <use xlink:href="#DejaVuSans-43" transform="translate(95.068359 0)"/>
      <use xlink:href="#DejaVuSans-20" transform="translate(164.892578 0)"/>
      <use xlink:href="#DejaVuSans-33" transform="translate(196.679688 0)"/>
      <use xlink:href="#DejaVuSans-36" transform="translate(260.302734 0)"/>
      <use xlink:href="#DejaVuSans-33" transform="translate(323.925781 0)"/>
      <use xlink:href="#DejaVuSans-32" transform="translate(387.548828 0)"/>
      <use xlink:href="#DejaVuSans-34" transform="translate(451.171875 0)"/>
      <use xlink:href="#DejaVuSans-31" transform="translate(514.794922 0)"/>
      <use xlink:href="#DejaVuSans-38" transform="translate(578.417969 0)"/>
     </g>
    </g>
   </g>
  </g>
 </g>
 <defs>
  <clipPath id="pb7fa3b2418">
   <rect x="76.365" y="34.56" width="473.463" height="221.76"/>
  </clipPath>
 </defs>
</svg>
